# This file uses centimeters as units for non-parametric coordinates.

v 21.083187 0.374167 242.847372
v 22.083187 0.374167 242.847372
v 21.083187 2.340962 242.847372
v 22.083187 2.340962 242.847372
v 21.083187 2.340962 -240.072251
v 22.083187 2.340962 -240.072251
v 21.083187 0.374167 -240.072251
v 22.083187 0.374167 -240.072251
vt 2.163160 0.089217
vt 2.160804 0.920208
vt 1.332169 0.086861
vt 1.329813 0.917852
vt 0.501178 0.084504
vt 0.498822 0.915496
vt -0.329813 0.082148
vt -0.332169 0.913139
vt -1.160804 0.079792
vt -1.163161 0.910783
vt 2.158448 1.751200
vt 1.327457 1.748843
vt 2.165517 -0.741774
vt 1.334526 -0.744131
vn 0.000000 0.000000 1.000000
vn 0.000000 0.000000 1.000000
vn 0.000000 0.000000 1.000000
vn 0.000000 0.000000 1.000000
vn 0.000000 1.000000 0.000000
vn 0.000000 1.000000 0.000000
vn 0.000000 1.000000 0.000000
vn 0.000000 1.000000 0.000000
vn 0.000000 0.000000 -1.000000
vn 0.000000 0.000000 -1.000000
vn 0.000000 0.000000 -1.000000
vn 0.000000 0.000000 -1.000000
vn 0.000000 -1.000000 0.000000
vn 0.000000 -1.000000 0.000000
vn 0.000000 -1.000000 0.000000
vn 0.000000 -1.000000 0.000000
vn 1.000000 0.000000 0.000000
vn 1.000000 0.000000 0.000000
vn 1.000000 0.000000 0.000000
vn 1.000000 0.000000 0.000000
vn -1.000000 0.000000 0.000000
vn -1.000000 0.000000 0.000000
vn -1.000000 0.000000 0.000000
vn -1.000000 0.000000 0.000000
f 1/1/1 2/2/2 4/4/3 3/3/4
f 3/3/5 4/4/6 6/6/7 5/5/8
f 5/5/9 6/6/10 8/8/11 7/7/12
f 7/7/13 8/8/14 2/10/15 1/9/16
f 2/2/17 8/11/18 6/12/19 4/4/20
f 7/13/21 1/1/22 3/3/23 5/14/24
v -22.489815 0.374167 242.847372
v -21.489815 0.374167 242.847372
v -22.489815 2.340962 242.847372
v -21.489815 2.340962 242.847372
v -22.489815 2.340962 -240.072251
v -21.489815 2.340962 -240.072251
v -22.489815 0.374167 -240.072251
v -21.489815 0.374167 -240.072251
vt 2.163160 0.089217
vt 2.160804 0.920208
vt 1.332169 0.086861
vt 1.329813 0.917852
vt 0.501178 0.084504
vt 0.498822 0.915496
vt -0.329813 0.082148
vt -0.332169 0.913139
vt -1.160804 0.079792
vt -1.163161 0.910783
vt 2.158448 1.751200
vt 1.327457 1.748843
vt 2.165517 -0.741774
vt 1.334526 -0.744131
vn 0.000000 0.000000 1.000000
vn 0.000000 0.000000 1.000000
vn 0.000000 0.000000 1.000000
vn 0.000000 0.000000 1.000000
vn 0.000000 1.000000 0.000000
vn 0.000000 1.000000 0.000000
vn 0.000000 1.000000 0.000000
vn 0.000000 1.000000 0.000000
vn 0.000000 0.000000 -1.000000
vn 0.000000 0.000000 -1.000000
vn 0.000000 0.000000 -1.000000
vn 0.000000 0.000000 -1.000000
vn 0.000000 -1.000000 0.000000
vn 0.000000 -1.000000 0.000000
vn 0.000000 -1.000000 0.000000
vn 0.000000 -1.000000 0.000000
vn 1.000000 0.000000 0.000000
vn 1.000000 0.000000 0.000000
vn 1.000000 0.000000 0.000000
vn 1.000000 0.000000 0.000000
vn -1.000000 0.000000 0.000000
vn -1.000000 0.000000 0.000000
vn -1.000000 0.000000 0.000000
vn -1.000000 0.000000 0.000000
f 9/15/25 10/16/26 12/18/27 11/17/28
f 11/17/29 12/18/30 14/20/31 13/19/32
f 13/19/33 14/20/34 16/22/35 15/21/36
f 15/21/37 16/22/38 10/24/39 9/23/40
f 10/16/41 16/25/42 14/26/43 12/18/44
f 15/27/45 9/15/46 11/17/47 13/28/48
