# This file uses centimeters as units for non-parametric coordinates.

v 0.000000 6.603839 0.683185
v -1.484123 0.936371 1.540047
v 0.000010 0.935900 2.397076
v 1.484430 0.935431 1.540212
v 1.484372 0.935619 -0.173815
v 0.000010 0.935716 -1.030777
v -1.484222 0.936045 -0.173740
v 2.037523 0.991788 2.702416
v 2.037523 0.991788 -1.334532
v -2.040611 0.991788 -1.334532
v -2.040611 0.991788 2.702416
v 2.037523 0.668026 2.702416
v 2.037523 0.668026 -1.334532
v -2.040611 0.668026 -1.334532
v -2.040611 0.668026 2.702416
vt 0.241793 0.215213
vt 0.234981 0.995509
vt 0.037447 0.215213
vt 0.446122 0.215213
vt 0.564677 0.065464
vt 0.824383 0.065464
vt 0.824383 0.327819
vt 0.564678 0.327819
vt 0.824383 0.190434
vt 0.562028 0.190434
vt 0.562028 0.169606
vt 0.824383 0.169606
vt 0.886527 0.065464
vt 0.886527 0.325169
vt 0.865869 0.325169
vt 0.865869 0.065464
vt 0.845211 0.065464
vt 0.845211 0.327819
vt 0.845211 0.325170
vt 0.241793 0.215213
vt 0.037447 0.215213
vt 0.446122 0.215213
vt 0.037447 0.215213
vt 0.446122 0.215213
vt 0.241793 0.215213
vt 0.446122 0.215213
vt 0.037447 0.215213
vt 0.824383 0.327819
vt 0.824383 0.065464
vt 0.865869 0.065464
vt 0.865869 0.325169
vt 0.845211 0.065464
vn 0.000150 0.289440 0.957196
vn 0.000246 1.000000 -0.000051
vn -0.828946 0.289436 0.478619
vn 0.828977 0.289446 0.478558
vn 0.000068 0.289443 -0.957195
vn 0.828978 0.289445 -0.478558
vn -0.828904 0.289439 -0.478689
vn 0.078889 0.993693 0.079694
vn 0.078889 0.993693 -0.079694
vn -0.078889 0.993693 -0.079694
vn -0.078889 0.993693 0.079694
vn -0.703509 0.000000 0.710686
vn 0.703509 0.000000 0.710686
vn 0.703509 0.000000 -0.710686
vn -0.703509 0.000000 -0.710686
f 3/1/1 1/2/2 2/3/3
f 4/4/4 1/2/2 3/1/1
f 6/20/5 1/2/2 5/21/6
f 5/22/6 1/2/2 4/23/4
f 7/24/7 1/2/2 6/25/5
f 2/26/3 1/2/2 7/27/7
f 8/5/8 9/6/9 10/7/10 11/8/11
f 8/9/8 11/10/11 15/11/12 12/12/13
f 9/13/9 8/14/8 12/15/13 13/16/14
f 10/17/10 9/18/9 13/28/14 14/29/15
f 11/30/11 10/31/10 14/19/15 15/32/12
