# This file uses centimeters as units for non-parametric coordinates.

v -21.581116 0.305404 242.430009
v 21.008811 0.305404 242.269008
v -21.473807 0.305404 172.673412
v 21.014694 0.305404 172.813017
v 21.008811 0.598551 242.269008
v -21.581116 0.598551 242.430009
v 21.014694 0.598551 172.813017
v -21.473807 0.598551 172.673412
vt 0.117900 0.451236
vt 0.119616 0.150532
vt 0.245117 0.151249
vt 0.243401 0.451952
vt 0.248893 0.451952
vt 0.247177 0.151248
vt 0.372678 0.150532
vt 0.374394 0.451236
vt 0.455675 0.094587
vt 0.455675 0.266098
vt 0.447114 0.266098
vt 0.447114 0.094587
vt 0.453041 0.439174
vt 0.453041 0.267664
vt 0.461603 0.267664
vt 0.461603 0.439174
vt 0.424180 0.505531
vt 0.424180 0.094587
vt 0.432741 0.094587
vt 0.432741 0.505531
vt 0.435647 0.505532
vt 0.435647 0.094587
vt 0.444209 0.094587
vt 0.444209 0.505532
vn 0.000000 -1.000000 0.000000
vn 0.000000 -1.000000 0.000000
vn 0.000000 -1.000000 0.000000
vn 0.000000 -1.000000 0.000000
vn 0.000000 1.000000 0.000000
vn 0.000000 1.000000 0.000000
vn 0.000000 1.000000 0.000000
vn 0.000000 1.000000 0.000000
vn -0.999999 0.000000 -0.001497
vn -0.999999 0.000000 -0.001497
vn -0.999999 0.000000 -0.001497
vn -0.999999 0.000000 -0.001497
vn 0.999999 0.000000 0.001496
vn 0.999999 0.000000 0.001496
vn 0.999999 0.000000 0.001496
vn 0.999999 0.000000 0.001496
vn 0.021752 0.000000 -0.999763
vn 0.021752 0.000000 -0.999763
vn 0.021752 0.000000 -0.999763
vn 0.021752 0.000000 -0.999763
vn -0.021748 0.000000 0.999764
vn -0.021748 0.000000 0.999764
vn -0.021748 0.000000 0.999764
vn -0.021748 0.000000 0.999764
f 2/1/1 1/2/2 3/3/3 4/4/4
f 6/5/5 5/6/6 7/7/7 8/8/8
f 3/9/9 1/10/10 6/11/11 8/12/12
f 2/13/13 4/14/14 7/15/15 5/16/16
f 4/17/17 3/18/18 8/19/19 7/20/20
f 1/21/21 2/22/22 5/23/23 6/24/24
v -21.581116 0.305404 173.135680
v 21.008811 0.305404 172.974679
v -21.473807 0.305404 103.379082
v 21.014694 0.305404 103.518688
v 21.008811 0.598551 172.974679
v -21.581116 0.598551 173.135680
v 21.014694 0.598551 103.518688
v -21.473807 0.598551 103.379082
vt 0.117900 0.451236
vt 0.119616 0.150532
vt 0.245117 0.151249
vt 0.243401 0.451952
vt 0.248893 0.451952
vt 0.247177 0.151248
vt 0.372678 0.150532
vt 0.374394 0.451236
vt 0.455675 0.094587
vt 0.455675 0.266098
vt 0.447114 0.266098
vt 0.447114 0.094587
vt 0.453041 0.439174
vt 0.453041 0.267664
vt 0.461603 0.267664
vt 0.461603 0.439174
vt 0.424180 0.505531
vt 0.424180 0.094587
vt 0.432741 0.094587
vt 0.432741 0.505531
vt 0.435647 0.505532
vt 0.435647 0.094587
vt 0.444209 0.094587
vt 0.444209 0.505532
vn 0.000000 -1.000000 0.000000
vn 0.000000 -1.000000 0.000000
vn 0.000000 -1.000000 0.000000
vn 0.000000 -1.000000 0.000000
vn 0.000000 1.000000 0.000000
vn 0.000000 1.000000 0.000000
vn 0.000000 1.000000 0.000000
vn 0.000000 1.000000 0.000000
vn -0.999999 0.000000 -0.001497
vn -0.999999 0.000000 -0.001497
vn -0.999999 0.000000 -0.001497
vn -0.999999 0.000000 -0.001497
vn 0.999999 0.000000 0.001496
vn 0.999999 0.000000 0.001496
vn 0.999999 0.000000 0.001496
vn 0.999999 0.000000 0.001496
vn 0.021752 0.000000 -0.999763
vn 0.021752 0.000000 -0.999763
vn 0.021752 0.000000 -0.999763
vn 0.021752 0.000000 -0.999763
vn -0.021748 0.000000 0.999764
vn -0.021748 0.000000 0.999764
vn -0.021748 0.000000 0.999764
vn -0.021748 0.000000 0.999764
f 10/25/25 9/26/26 11/27/27 12/28/28
f 14/29/29 13/30/30 15/31/31 16/32/32
f 11/33/33 9/34/34 14/35/35 16/36/36
f 10/37/37 12/38/38 15/39/39 13/40/40
f 12/41/41 11/42/42 16/43/43 15/44/44
f 9/45/45 10/46/46 13/47/47 14/48/48
v -21.581116 0.305404 104.381839
v 21.008811 0.305404 104.220838
v -21.473807 0.305404 34.625242
v 21.014694 0.305404 34.764847
v 21.008811 0.598551 104.220838
v -21.581116 0.598551 104.381839
v 21.014694 0.598551 34.764847
v -21.473807 0.598551 34.625242
vt 0.117900 0.451236
vt 0.119616 0.150532
vt 0.245117 0.151249
vt 0.243401 0.451952
vt 0.248893 0.451952
vt 0.247177 0.151248
vt 0.372678 0.150532
vt 0.374394 0.451236
vt 0.455675 0.094587
vt 0.455675 0.266098
vt 0.447114 0.266098
vt 0.447114 0.094587
vt 0.453041 0.439174
vt 0.453041 0.267664
vt 0.461603 0.267664
vt 0.461603 0.439174
vt 0.424180 0.505531
vt 0.424180 0.094587
vt 0.432741 0.094587
vt 0.432741 0.505531
vt 0.435647 0.505532
vt 0.435647 0.094587
vt 0.444209 0.094587
vt 0.444209 0.505532
vn 0.000000 -1.000000 0.000000
vn 0.000000 -1.000000 0.000000
vn 0.000000 -1.000000 0.000000
vn 0.000000 -1.000000 0.000000
vn 0.000000 1.000000 0.000000
vn 0.000000 1.000000 0.000000
vn 0.000000 1.000000 0.000000
vn 0.000000 1.000000 0.000000
vn -0.999999 0.000000 -0.001497
vn -0.999999 0.000000 -0.001497
vn -0.999999 0.000000 -0.001497
vn -0.999999 0.000000 -0.001497
vn 0.999999 0.000000 0.001496
vn 0.999999 0.000000 0.001496
vn 0.999999 0.000000 0.001496
vn 0.999999 0.000000 0.001496
vn 0.021752 0.000000 -0.999763
vn 0.021752 0.000000 -0.999763
vn 0.021752 0.000000 -0.999763
vn 0.021752 0.000000 -0.999763
vn -0.021748 0.000000 0.999764
vn -0.021748 0.000000 0.999764
vn -0.021748 0.000000 0.999764
vn -0.021748 0.000000 0.999764
f 18/49/49 17/50/50 19/51/51 20/52/52
f 22/53/53 21/54/54 23/55/55 24/56/56
f 19/57/57 17/58/58 22/59/59 24/60/60
f 18/61/61 20/62/62 23/63/63 21/64/64
f 20/65/65 19/66/66 24/67/67 23/68/68
f 17/69/69 18/70/70 21/71/71 22/72/72
v -21.581116 0.305404 35.100110
v 21.008811 0.305404 34.939109
v -21.473807 0.305404 -34.656487
v 21.014694 0.305404 -34.516882
v 21.008811 0.598551 34.939109
v -21.581116 0.598551 35.100110
v 21.014694 0.598551 -34.516882
v -21.473807 0.598551 -34.656487
vt 0.117900 0.451236
vt 0.119616 0.150532
vt 0.245117 0.151249
vt 0.243401 0.451952
vt 0.248893 0.451952
vt 0.247177 0.151248
vt 0.372678 0.150532
vt 0.374394 0.451236
vt 0.455675 0.094587
vt 0.455675 0.266098
vt 0.447114 0.266098
vt 0.447114 0.094587
vt 0.453041 0.439174
vt 0.453041 0.267664
vt 0.461603 0.267664
vt 0.461603 0.439174
vt 0.424180 0.505531
vt 0.424180 0.094587
vt 0.432741 0.094587
vt 0.432741 0.505531
vt 0.435647 0.505532
vt 0.435647 0.094587
vt 0.444209 0.094587
vt 0.444209 0.505532
vn 0.000000 -1.000000 0.000000
vn 0.000000 -1.000000 0.000000
vn 0.000000 -1.000000 0.000000
vn 0.000000 -1.000000 0.000000
vn 0.000000 1.000000 0.000000
vn 0.000000 1.000000 0.000000
vn 0.000000 1.000000 0.000000
vn 0.000000 1.000000 0.000000
vn -0.999999 0.000000 -0.001497
vn -0.999999 0.000000 -0.001497
vn -0.999999 0.000000 -0.001497
vn -0.999999 0.000000 -0.001497
vn 0.999999 0.000000 0.001496
vn 0.999999 0.000000 0.001496
vn 0.999999 0.000000 0.001496
vn 0.999999 0.000000 0.001496
vn 0.021752 0.000000 -0.999763
vn 0.021752 0.000000 -0.999763
vn 0.021752 0.000000 -0.999763
vn 0.021752 0.000000 -0.999763
vn -0.021748 0.000000 0.999764
vn -0.021748 0.000000 0.999764
vn -0.021748 0.000000 0.999764
vn -0.021748 0.000000 0.999764
f 26/73/73 25/74/74 27/75/75 28/76/76
f 30/77/77 29/78/78 31/79/79 32/80/80
f 27/81/81 25/82/82 30/83/83 32/84/84
f 26/85/85 28/86/86 31/87/87 29/88/88
f 28/89/89 27/90/90 32/91/91 31/92/92
f 25/93/93 26/94/94 29/95/95 30/96/96
v -21.581116 0.305404 -33.917309
v 21.008811 0.305404 -34.078310
v -21.473807 0.305404 -103.673906
v 21.014694 0.305404 -103.534301
v 21.008811 0.598551 -34.078310
v -21.581116 0.598551 -33.917309
v 21.014694 0.598551 -103.534301
v -21.473807 0.598551 -103.673906
vt 0.117900 0.451236
vt 0.119616 0.150532
vt 0.245117 0.151249
vt 0.243401 0.451952
vt 0.248893 0.451952
vt 0.247177 0.151248
vt 0.372678 0.150532
vt 0.374394 0.451236
vt 0.455675 0.094587
vt 0.455675 0.266098
vt 0.447114 0.266098
vt 0.447114 0.094587
vt 0.453041 0.439174
vt 0.453041 0.267664
vt 0.461603 0.267664
vt 0.461603 0.439174
vt 0.424180 0.505531
vt 0.424180 0.094587
vt 0.432741 0.094587
vt 0.432741 0.505531
vt 0.435647 0.505532
vt 0.435647 0.094587
vt 0.444209 0.094587
vt 0.444209 0.505532
vn 0.000000 -1.000000 0.000000
vn 0.000000 -1.000000 0.000000
vn 0.000000 -1.000000 0.000000
vn 0.000000 -1.000000 0.000000
vn 0.000000 1.000000 0.000000
vn 0.000000 1.000000 0.000000
vn 0.000000 1.000000 0.000000
vn 0.000000 1.000000 0.000000
vn -0.999999 0.000000 -0.001497
vn -0.999999 0.000000 -0.001497
vn -0.999999 0.000000 -0.001497
vn -0.999999 0.000000 -0.001497
vn 0.999999 0.000000 0.001496
vn 0.999999 0.000000 0.001496
vn 0.999999 0.000000 0.001496
vn 0.999999 0.000000 0.001496
vn 0.021752 0.000000 -0.999763
vn 0.021752 0.000000 -0.999763
vn 0.021752 0.000000 -0.999763
vn 0.021752 0.000000 -0.999763
vn -0.021748 0.000000 0.999764
vn -0.021748 0.000000 0.999764
vn -0.021748 0.000000 0.999764
vn -0.021748 0.000000 0.999764
f 34/97/97 33/98/98 35/99/99 36/100/100
f 38/101/101 37/102/102 39/103/103 40/104/104
f 35/105/105 33/106/106 38/107/107 40/108/108
f 34/109/109 36/110/110 39/111/111 37/112/112
f 36/113/113 35/114/114 40/115/115 39/116/116
f 33/117/117 34/118/118 37/119/119 38/120/120
v -21.581116 0.305404 -101.703789
v 21.008811 0.305404 -101.864790
v -21.473807 0.305404 -171.460386
v 21.014694 0.305404 -171.320781
v 21.008811 0.598551 -101.864790
v -21.581116 0.598551 -101.703789
v 21.014694 0.598551 -171.320781
v -21.473807 0.598551 -171.460386
vt 0.117900 0.451236
vt 0.119616 0.150532
vt 0.245117 0.151249
vt 0.243401 0.451952
vt 0.248893 0.451952
vt 0.247177 0.151248
vt 0.372678 0.150532
vt 0.374394 0.451236
vt 0.455675 0.094587
vt 0.455675 0.266098
vt 0.447114 0.266098
vt 0.447114 0.094587
vt 0.453041 0.439174
vt 0.453041 0.267664
vt 0.461603 0.267664
vt 0.461603 0.439174
vt 0.424180 0.505531
vt 0.424180 0.094587
vt 0.432741 0.094587
vt 0.432741 0.505531
vt 0.435647 0.505532
vt 0.435647 0.094587
vt 0.444209 0.094587
vt 0.444209 0.505532
vn 0.000000 -1.000000 0.000000
vn 0.000000 -1.000000 0.000000
vn 0.000000 -1.000000 0.000000
vn 0.000000 -1.000000 0.000000
vn 0.000000 1.000000 0.000000
vn 0.000000 1.000000 0.000000
vn 0.000000 1.000000 0.000000
vn 0.000000 1.000000 0.000000
vn -0.999999 0.000000 -0.001497
vn -0.999999 0.000000 -0.001497
vn -0.999999 0.000000 -0.001497
vn -0.999999 0.000000 -0.001497
vn 0.999999 0.000000 0.001496
vn 0.999999 0.000000 0.001496
vn 0.999999 0.000000 0.001496
vn 0.999999 0.000000 0.001496
vn 0.021752 0.000000 -0.999763
vn 0.021752 0.000000 -0.999763
vn 0.021752 0.000000 -0.999763
vn 0.021752 0.000000 -0.999763
vn -0.021748 0.000000 0.999764
vn -0.021748 0.000000 0.999764
vn -0.021748 0.000000 0.999764
vn -0.021748 0.000000 0.999764
f 42/121/121 41/122/122 43/123/123 44/124/124
f 46/125/125 45/126/126 47/127/127 48/128/128
f 43/129/129 41/130/130 46/131/131 48/132/132
f 42/133/133 44/134/134 47/135/135 45/136/136
f 44/137/137 43/138/138 48/139/139 47/140/140
f 41/141/141 42/142/142 45/143/143 46/144/144
v -21.581116 0.305404 -170.372353
v 21.008811 0.305404 -170.533354
v -21.473807 0.305404 -240.128950
v 21.014694 0.305404 -239.989345
v 21.008811 0.598551 -170.533354
v -21.581116 0.598551 -170.372353
v 21.014694 0.598551 -239.989345
v -21.473807 0.598551 -240.128950
vt 0.117900 0.451236
vt 0.119616 0.150532
vt 0.245117 0.151249
vt 0.243401 0.451952
vt 0.248893 0.451952
vt 0.247177 0.151248
vt 0.372678 0.150532
vt 0.374394 0.451236
vt 0.455675 0.094587
vt 0.455675 0.266098
vt 0.447114 0.266098
vt 0.447114 0.094587
vt 0.453041 0.439174
vt 0.453041 0.267664
vt 0.461603 0.267664
vt 0.461603 0.439174
vt 0.424180 0.505531
vt 0.424180 0.094587
vt 0.432741 0.094587
vt 0.432741 0.505531
vt 0.435647 0.505532
vt 0.435647 0.094587
vt 0.444209 0.094587
vt 0.444209 0.505532
vn 0.000000 -1.000000 0.000000
vn 0.000000 -1.000000 0.000000
vn 0.000000 -1.000000 0.000000
vn 0.000000 -1.000000 0.000000
vn 0.000000 1.000000 0.000000
vn 0.000000 1.000000 0.000000
vn 0.000000 1.000000 0.000000
vn 0.000000 1.000000 0.000000
vn -0.999999 0.000000 -0.001497
vn -0.999999 0.000000 -0.001497
vn -0.999999 0.000000 -0.001497
vn -0.999999 0.000000 -0.001497
vn 0.999999 0.000000 0.001496
vn 0.999999 0.000000 0.001496
vn 0.999999 0.000000 0.001496
vn 0.999999 0.000000 0.001496
vn 0.021752 0.000000 -0.999763
vn 0.021752 0.000000 -0.999763
vn 0.021752 0.000000 -0.999763
vn 0.021752 0.000000 -0.999763
vn -0.021748 0.000000 0.999764
vn -0.021748 0.000000 0.999764
vn -0.021748 0.000000 0.999764
vn -0.021748 0.000000 0.999764
f 50/145/145 49/146/146 51/147/147 52/148/148
f 54/149/149 53/150/150 55/151/151 56/152/152
f 51/153/153 49/154/154 54/155/155 56/156/156
f 50/157/157 52/158/158 55/159/159 53/160/160
f 52/161/161 51/162/162 56/163/163 55/164/164
f 49/165/165 50/166/166 53/167/167 54/168/168
