# This file uses centimeters as units for non-parametric coordinates.

v -1.193398 0.646959 6.891434
v -0.574573 0.646959 6.891434
v 2.518731 0.646959 6.891434
v 3.049524 0.646959 6.891434
v -1.193398 4.889886 6.891434
v -0.574573 4.889886 6.891434
v 2.518731 4.889886 6.891434
v 3.049524 4.889886 6.891434
v -1.193398 4.889886 6.360096
v -0.574573 4.889886 6.360096
v 2.518731 4.889886 6.360096
v 3.049524 4.889886 6.360096
v -1.193398 4.889886 3.205520
v -0.574573 4.889886 3.205520
v 2.518731 4.889886 3.205520
v 3.049524 4.889886 3.205520
v -1.193398 4.889886 2.648508
v -0.574573 4.889886 2.648508
v 2.518731 4.889886 2.648508
v 3.049524 4.889886 2.648508
v -1.193398 0.646959 2.648508
v -0.574573 0.646959 2.648508
v 2.518731 0.646959 2.648508
v 3.049524 0.646959 2.648508
v -1.193398 0.646959 3.205520
v -0.574573 0.646959 3.205520
v 2.518731 0.646959 3.205520
v 3.049524 0.646959 3.205520
v -1.193398 0.646959 6.360096
v -0.574573 0.646959 6.360096
v 2.518731 0.646959 6.360096
v 3.049524 0.646959 6.360096
vt 0.230679 0.611478
vt 0.278734 0.611478
vt 0.278734 0.940957
vt 0.230679 0.940957
vt 0.518941 0.611478
vt 0.518941 0.940957
vt 0.560159 0.611478
vt 0.560159 0.940957
vt 0.837687 0.025097
vt 0.846968 0.025097
vt 0.846968 0.033065
vt 0.837687 0.033065
vt 0.893362 0.025097
vt 0.893362 0.033065
vt 0.901324 0.025097
vt 0.901324 0.033065
vt 0.846968 0.080378
vt 0.837687 0.080378
vt 0.901324 0.080378
vt 0.893362 0.080378
vt 0.846968 0.088733
vt 0.837687 0.088733
vt 0.893362 0.088733
vt 0.901324 0.088733
vt 0.236962 0.615294
vt 0.285016 0.615294
vt 0.285016 0.944774
vt 0.236962 0.944774
vt 0.525224 0.615294
vt 0.525224 0.944774
vt 0.566442 0.615294
vt 0.566442 0.944774
vt 0.018457 0.073188
vt 0.030840 0.073188
vt 0.030840 0.084335
vt 0.018457 0.084335
vt 0.092739 0.073188
vt 0.092739 0.084335
vt 0.103361 0.073188
vt 0.103361 0.084335
vt 0.030840 0.147460
vt 0.018457 0.147460
vt 0.092739 0.147460
vt 0.103361 0.147460
vt 0.030840 0.158092
vt 0.018457 0.158092
vt 0.092739 0.158092
vt 0.103361 0.158092
vt 0.516901 0.613619
vt 0.560159 0.613619
vt 0.560159 0.943099
vt 0.516901 0.943099
vt 0.271936 0.613619
vt 0.271936 0.943099
vt 0.230679 0.613619
vt 0.230679 0.943099
vt 0.227060 0.613620
vt 0.270318 0.613620
vt 0.270318 0.943099
vt 0.227060 0.943099
vt 0.515284 0.613620
vt 0.515284 0.943099
vt 0.556541 0.613620
vt 0.556541 0.943099
vn 0.000000 0.000000 1.000000
vn 0.000000 0.000000 1.000000
vn 0.000000 0.000000 1.000000
vn 0.000000 0.000000 1.000000
vn 0.000000 0.000000 1.000000
vn 0.000000 0.000000 1.000000
vn 0.000000 0.000000 1.000000
vn 0.000000 0.000000 1.000000
vn 0.000000 1.000000 0.000000
vn 0.000000 1.000000 0.000000
vn 0.000000 1.000000 0.000000
vn 0.000000 1.000000 0.000000
vn 0.000000 1.000000 0.000000
vn 0.000000 1.000000 0.000000
vn 0.000000 1.000000 0.000000
vn 0.000000 1.000000 0.000000
vn 0.000000 1.000000 0.000000
vn 0.000000 1.000000 0.000000
vn 0.000000 1.000000 0.000000
vn 0.000000 1.000000 0.000000
vn 0.000000 1.000000 0.000000
vn 0.000000 1.000000 0.000000
vn 0.000000 1.000000 0.000000
vn 0.000000 1.000000 0.000000
vn 0.000000 0.000000 -1.000000
vn 0.000000 0.000000 -1.000000
vn 0.000000 0.000000 -1.000000
vn 0.000000 0.000000 -1.000000
vn 0.000000 0.000000 -1.000000
vn 0.000000 0.000000 -1.000000
vn 0.000000 0.000000 -1.000000
vn 0.000000 0.000000 -1.000000
vn 0.000000 -1.000000 0.000000
vn 0.000000 -1.000000 0.000000
vn 0.000000 -1.000000 0.000000
vn 0.000000 -1.000000 0.000000
vn 0.000000 -1.000000 0.000000
vn 0.000000 -1.000000 0.000000
vn 0.000000 -1.000000 0.000000
vn 0.000000 -1.000000 0.000000
vn 0.000000 -1.000000 0.000000
vn 0.000000 -1.000000 0.000000
vn 0.000000 -1.000000 0.000000
vn 0.000000 -1.000000 0.000000
vn 0.000000 -1.000000 0.000000
vn 0.000000 -1.000000 0.000000
vn 0.000000 -1.000000 0.000000
vn 0.000000 -1.000000 0.000000
vn 1.000000 0.000000 0.000000
vn 1.000000 0.000000 0.000000
vn 1.000000 0.000000 0.000000
vn 1.000000 0.000000 0.000000
vn 1.000000 0.000000 0.000000
vn 1.000000 0.000000 0.000000
vn 1.000000 0.000000 0.000000
vn 1.000000 0.000000 0.000000
vn -1.000000 0.000000 0.000000
vn -1.000000 0.000000 0.000000
vn -1.000000 0.000000 0.000000
vn -1.000000 0.000000 0.000000
vn -1.000000 0.000000 0.000000
vn -1.000000 0.000000 0.000000
vn -1.000000 0.000000 0.000000
vn -1.000000 0.000000 0.000000
vn 0.000000 1.000000 0.000000
vn 0.000000 1.000000 0.000000
vn 0.000000 1.000000 0.000000
vn 0.000000 1.000000 0.000000
f 1/1/1 2/2/2 6/3/3 5/4/4
f 2/2/2 3/5/5 7/6/6 6/3/3
f 3/5/5 4/7/7 8/8/8 7/6/6
f 5/9/9 6/10/10 10/11/11 9/12/12
f 6/10/10 7/13/13 11/14/14 10/11/11
f 7/13/13 8/15/15 12/16/16 11/14/14
f 9/12/12 10/11/11 14/17/17 13/18/18
f 11/14/14 12/16/16 16/19/19 15/20/20
f 13/18/18 14/17/17 18/21/21 17/22/22
f 14/17/17 15/20/20 19/23/23 18/21/21
f 15/20/20 16/19/19 20/24/24 19/23/23
f 17/25/25 18/26/26 22/27/27 21/28/28
f 18/26/26 19/29/29 23/30/30 22/27/27
f 19/29/29 20/31/31 24/32/32 23/30/30
f 21/33/33 22/34/34 26/35/35 25/36/36
f 22/34/34 23/37/37 27/38/38 26/35/35
f 23/37/37 24/39/39 28/40/40 27/38/38
f 25/36/36 26/35/35 30/41/41 29/42/42
f 26/35/35 27/38/38 31/43/43 30/41/41
f 27/38/38 28/40/40 32/44/44 31/43/43
f 29/42/42 30/41/41 2/45/45 1/46/46
f 30/41/41 31/43/43 3/47/47 2/45/45
f 31/43/43 32/44/44 4/48/48 3/47/47
f 28/49/49 24/50/50 20/51/51 16/52/52
f 32/53/53 28/49/49 16/52/52 12/54/54
f 4/55/55 32/53/53 12/54/54 8/56/56
f 21/57/57 25/58/58 13/59/59 17/60/60
f 25/58/58 29/61/61 9/62/62 13/59/59
f 29/61/61 1/63/63 5/64/64 9/62/62
f 14/17/65 10/11/66 11/14/67 15/20/68
