# This file uses centimeters as units for non-parametric coordinates.

v 7.604562 0.608260 11.172708
v 7.604562 0.608260 -12.642192
v 7.604562 6.466728 11.172708
v 7.604562 6.466728 -12.642192
v -5.263414 6.466728 11.172708
v -5.263414 6.466728 -12.642192
v -5.263414 0.608260 11.172708
v -5.263414 0.608260 -12.642192
v 7.029522 7.469153 11.172708
v 6.288590 8.471579 11.172708
v 5.046878 9.474005 11.172708
v 2.764417 10.476433 11.172711
v 7.029522 7.469153 -12.642192
v 6.288590 8.471579 -12.642192
v 5.046878 9.474005 -12.642192
v 2.764417 10.476433 -12.642190
v -4.748720 7.469153 -12.642192
v -4.075295 8.471579 -12.642192
v -2.900614 9.474005 -12.642192
v -0.745176 10.476433 -12.642190
v -4.748720 7.469153 11.172708
v -4.075295 8.471579 11.172708
v -2.900614 9.474005 11.172708
v -0.745176 10.476433 11.172711
vt 0.180181 0.007066
vt 0.880389 0.007066
vt 0.880389 0.371159
vt 0.180181 0.371159
vt 0.173949 0.008352
vt 0.874157 0.008352
vt 0.874157 0.372445
vt 0.173949 0.372445
vt 0.611108 0.391409
vt 0.611525 0.574746
vt 0.553008 0.574880
vt 0.552590 0.391542
vt 0.647273 0.391327
vt 0.647691 0.574664
vt 0.513390 0.574970
vt 0.512972 0.391633
vt 0.668256 0.391279
vt 0.668674 0.574616
vt 0.493539 0.575016
vt 0.493122 0.391678
vt 0.011006 0.796561
vt 0.178850 0.796561
vt 0.178850 0.995635
vt 0.011006 0.995635
vt 0.426928 0.392828
vt 0.428292 0.576160
vt 0.458298 0.392594
vt 0.459662 0.575927
vt 0.489667 0.392361
vt 0.491031 0.575693
vt 0.543937 0.660066
vt 1.000622 0.654815
vt 0.983291 0.706382
vt 0.565280 0.711188
vt 0.960326 0.758014
vt 0.592512 0.762243
vt 0.919572 0.809852
vt 0.637515 0.813095
vt 0.837302 0.862166
vt 0.714404 0.863579
vt 0.547086 0.661517
vt 1.003770 0.656266
vt 0.984297 0.707858
vt 0.566287 0.712664
vt 0.958937 0.759518
vt 0.591122 0.763747
vt 0.915803 0.811382
vt 0.633746 0.814625
vt 0.840785 0.863613
vt 0.717886 0.865026
vt 0.490930 0.390924
vt 0.491349 0.574950
vt 0.459861 0.575021
vt 0.459442 0.390995
vt 0.428373 0.575093
vt 0.427953 0.391067
vt 0.239377 0.393960
vt 0.425458 0.393960
vt 0.425458 0.580042
vt 0.239377 0.580042
vt 0.675284 0.577137
vt 0.675284 0.388692
vt 0.863729 0.388692
vt 0.863729 0.577137
vn 1.000000 0.000000 0.000000
vn 1.000000 0.000000 0.000000
vn 0.996506 0.083521 0.000000
vn 0.996506 0.083521 0.000000
vn 0.000000 1.000000 0.000000
vn 0.000000 1.000000 0.000000
vn 0.000000 1.000000 0.000000
vn 0.000000 1.000000 0.000000
vn -0.997198 0.074808 -0.000000
vn -0.997198 0.074808 -0.000000
vn -1.000000 0.000000 -0.000000
vn -1.000000 0.000000 -0.000000
vn 0.000000 -1.000000 0.000000
vn 0.000000 -1.000000 0.000000
vn 0.000000 -1.000000 0.000000
vn 0.000000 -1.000000 0.000000
vn 0.000000 0.000000 -1.000000
vn 0.000000 0.000000 -1.000000
vn 0.000000 0.000000 -1.000000
vn 0.000000 0.000000 -1.000000
vn 0.000000 0.000000 1.000000
vn 0.000000 0.000000 1.000000
vn 0.000000 0.000000 1.000000
vn 0.000000 0.000000 1.000000
vn 0.835993 0.548741 0.000000
vn 0.835993 0.548741 0.000000
vn 0.711034 0.703158 0.000000
vn 0.711034 0.703158 0.000000
vn 0.494472 0.869193 0.000000
vn 0.494472 0.869193 0.000000
vn 0.402115 0.915589 0.000000
vn 0.402115 0.915589 0.000000
vn 0.000000 -0.000000 -1.000000
vn 0.000000 -0.000000 -1.000000
vn 0.000000 -0.000000 -1.000000
vn 0.000000 -0.000000 -1.000000
vn 0.000000 0.000001 -1.000000
vn 0.000000 0.000001 -1.000000
vn 0.000000 0.000003 -1.000000
vn 0.000000 0.000003 -1.000000
vn -0.860281 0.509821 -0.000000
vn -0.860281 0.509821 -0.000000
vn -0.735265 0.677780 -0.000000
vn -0.735265 0.677780 -0.000000
vn -0.515778 0.856722 -0.000000
vn -0.515778 0.856722 -0.000000
vn -0.421696 0.906737 -0.000000
vn -0.421696 0.906737 -0.000000
vn 0.000000 0.000000 1.000000
vn 0.000000 0.000000 1.000000
vn 0.000000 -0.000000 1.000000
vn 0.000000 -0.000000 1.000000
vn 0.000000 -0.000001 1.000000
vn 0.000000 -0.000001 1.000000
vn 0.000000 -0.000003 1.000000
vn 0.000000 -0.000003 1.000000
f 1/57/1 2/58/2 4/59/3 3/60/4
f 12/9/5 16/10/6 20/11/7 24/12/8
f 5/61/9 6/62/10 8/63/11 7/64/12
f 7/21/13 8/22/14 2/23/15 1/24/16
f 2/1/17 8/2/18 6/3/19 4/4/20
f 7/5/21 1/6/22 3/7/23 5/8/24
f 3/51/4 4/52/3 13/53/25 9/54/26
f 9/54/26 13/53/25 14/55/27 10/56/28
f 10/17/28 14/18/27 15/14/29 11/13/30
f 11/13/30 15/14/29 16/10/31 12/9/32
f 4/31/20 6/32/19 17/33/33 13/34/34
f 13/34/34 17/33/33 18/35/35 14/36/36
f 14/36/36 18/35/35 19/37/37 15/38/38
f 15/38/38 19/37/37 20/39/39 16/40/40
f 6/26/10 5/25/9 21/27/41 17/28/42
f 17/28/42 21/27/41 22/29/43 18/30/44
f 18/19/44 22/20/43 23/16/45 19/15/46
f 19/15/46 23/16/45 24/12/47 20/11/48
f 5/41/24 3/42/23 9/43/49 21/44/50
f 21/44/50 9/43/49 10/45/51 22/46/52
f 22/46/52 10/45/51 11/47/53 23/48/54
f 23/48/54 11/47/53 12/49/55 24/50/56
