# This file uses centimeters as units for non-parametric coordinates.

v -110.675865 -0.500000 29.346406
v 4.522304 -0.500000 30.003783
v -110.401427 -0.500000 -18.731791
v 4.796596 -0.500000 -18.074368
v 4.522304 0.000000 30.003783
v -110.675865 0.000000 29.346406
v 4.796596 0.000000 -18.074368
v -110.401427 0.000000 -18.731791
vt 0.424180 0.505531
vt 0.424180 0.094587
vt 0.432741 0.094587
vt 0.432741 0.505531
vt 0.435647 0.505532
vt 0.435647 0.094587
vt 0.444209 0.094587
vt 0.444209 0.505532
vt 0.117900 0.451236
vt 0.119616 0.150532
vt 0.245117 0.151249
vt 0.243401 0.451952
vt 0.248893 0.451952
vt 0.247177 0.151248
vt 0.372678 0.150532
vt 0.374394 0.451236
vt 0.455675 0.094587
vt 0.455675 0.266098
vt 0.447114 0.266098
vt 0.447114 0.094587
vt 0.453041 0.439174
vt 0.453041 0.267664
vt 0.461603 0.267664
vt 0.461603 0.439174
vn 0.000000 -1.000000 0.000000
vn 0.000000 -1.000000 0.000000
vn 0.000000 -1.000000 0.000000
vn 0.000000 -1.000000 0.000000
vn 0.000000 1.000000 0.000000
vn 0.000000 1.000000 0.000000
vn 0.000000 1.000000 0.000000
vn 0.000000 1.000000 0.000000
vn -0.999984 0.000000 -0.005708
vn -0.999984 0.000000 -0.005708
vn -0.999984 0.000000 -0.005708
vn -0.999984 0.000000 -0.005708
vn 0.999984 0.000000 0.005705
vn 0.999984 0.000000 0.005705
vn 0.999984 0.000000 0.005705
vn 0.999984 0.000000 0.005705
vn 0.005707 0.000000 -0.999984
vn 0.005707 0.000000 -0.999984
vn 0.005707 0.000000 -0.999984
vn 0.005707 0.000000 -0.999984
vn -0.005706 0.000000 0.999984
vn -0.005706 0.000000 0.999984
vn -0.005706 0.000000 0.999984
vn -0.005706 0.000000 0.999984
f 2/9/1 1/10/2 3/11/3 4/12/4
f 6/13/5 5/14/6 7/15/7 8/16/8
f 3/17/9 1/18/10 6/19/11 8/20/12
f 2/21/13 4/22/14 7/23/15 5/24/16
f 4/1/17 3/2/18 8/3/19 7/4/20
f 1/5/21 2/6/22 5/7/23 6/8/24
